# xmcd
#
# Track frame offsets:
#	150
#	22344
#	45173
#	65347
#	85684
#	104014
#	119438
#	136166
#	152984
#	173658
#	195637
#	215783
#	231013
#	251904
#
# Disc length: 3826 seconds
#
# Revision: 4
# Processed by: cddbd v1.5.2PL0 Copyright (c) Steve Scherf et al.
# Submitted via: audiograbber 1.83.01
#
DISCID=c50ef00e
DTITLE=Carabao - Ruam Hit Carabao  CD 2
DYEAR=2007
DGENRE=Thai Country
TTITLE0=Mon pleng Carabao
TTITLE1=Larng Barng
TTITLE2=Pra-Cha-Tib-Pa-Tai
TTITLE3=Tin-Ner
TTITLE4=Ma-Ha-Lai
TTITLE5=Ra-Cha Ngern Porn
TTITLE6=Ruk Tor-Ra-Hod 
TTITLE7=Gra-Tang Dok Mai Hai Khun
TTITLE8=Nang-Ngarm Too Gra-Jok
TTITLE9=Sun-Ya Nah Fon
TTITLE10=Kon Geb Fuen
TTITLE11=Poo-Thao
TTITLE12=Refugee
TTITLE13=Chee-Wit Sam-Pan
EXTD=
EXTT0=
EXTT1=
EXTT2=
EXTT3=
EXTT4=
EXTT5=
EXTT6=
EXTT7=
EXTT8=
EXTT9=
EXTT10=
EXTT11=
EXTT12=
EXTT13=
PLAYORDER=
